<svg width="63" height="67" viewBox="0 0 63 67" fill="none" xmlns="http://www.w3.org/2000/svg">
<path fill-rule="evenodd" clip-rule="evenodd" d="M31.504 44.5121L51.8948 65.4076C53.9404 67.52 55.2713 67.5416 57.3543 65.4076L61.4455 61.2143C63.4497 59.161 63.5855 57.8132 61.4455 55.62L39.8576 33.5008L61.4474 11.3817C63.4694 9.30282 63.5088 7.8998 61.4474 5.78543L57.3563 1.59413C55.2339 -0.581328 53.9227 -0.480831 51.8968 1.59413L31.504 22.4896L11.1132 1.5961C9.08728 -0.478861 7.77606 -0.579358 5.65369 1.5961L1.56253 5.7874C-0.500765 7.90178 -0.463358 9.30479 1.56253 11.3837L23.1504 33.5008L1.56253 55.62C-0.577549 57.8132 -0.463358 59.161 1.56253 61.2143L5.65172 65.4076C7.71699 67.5416 9.0479 67.52 11.1112 65.4076L31.504 44.5121Z" fill="#FFF9F9"/>
</svg>
