<svg width="139" height="139" viewBox="0 0 139 139" fill="none" xmlns="http://www.w3.org/2000/svg">
<path d="M115.833 23.1667H23.1667C16.7785 23.1667 11.5834 28.3618 11.5834 34.75V104.25C11.5834 110.638 16.7785 115.833 23.1667 115.833H115.833C122.222 115.833 127.417 110.638 127.417 104.25V34.75C127.417 28.3618 122.222 23.1667 115.833 23.1667ZM115.833 34.75V37.7096L69.5 73.7511L23.1667 37.7154V34.75H115.833ZM23.1667 104.25V52.3798L65.944 85.653C66.9581 86.4496 68.2104 86.8826 69.5 86.8826C70.7897 86.8826 72.042 86.4496 73.0561 85.653L115.833 52.3798L115.845 104.25H23.1667Z" fill="black"/>
</svg>
