<svg width="111" height="111" viewBox="0 0 111 111" fill="none" xmlns="http://www.w3.org/2000/svg">
<path d="M56.4577 40.118C52.8536 40.118 49.9191 42.9606 49.9191 46.4519V64.5484C49.9191 68.0449 52.8519 70.8823 56.4577 70.8823C60.0634 70.8823 62.9963 68.0432 62.9963 64.5484V46.4519C62.9945 42.9606 60.0617 40.118 56.4577 40.118Z" fill="black"/>
<path d="M90.1875 3.46875H20.8125C11.2335 3.46875 3.46875 11.2335 3.46875 20.8125V90.1875C3.46875 99.7665 11.2335 107.531 20.8125 107.531H90.1875C99.7665 107.531 107.531 99.7665 107.531 90.1875V20.8125C107.531 11.2335 99.7665 3.46875 90.1875 3.46875ZM28.9051 52.803C30.4938 52.803 32.0495 53.1291 33.5272 53.7691C34.9327 54.3785 36.212 55.2449 37.2995 56.3238C38.3845 57.3877 39.2579 58.6477 39.8733 60.0371C40.5202 61.4975 40.848 63.022 40.848 64.569C40.848 66.1543 40.5323 67.6927 39.9062 69.1426C39.3037 70.5407 38.4335 71.8075 37.3446 72.8715C35.0877 75.0815 32.0534 76.3171 28.8947 76.3125C27.2817 76.3125 25.3392 75.9639 23.8685 75.3465C22.4529 74.7602 21.1633 73.907 20.0702 72.8333C18.9816 71.7677 18.1114 70.4999 17.5085 69.101C16.8846 67.6583 16.5641 66.1027 16.5668 64.5309H22.0838C22.0838 68.017 25.3479 70.8926 28.8964 70.8926C32.4467 70.8926 35.3327 68.0534 35.3327 64.569C35.3327 61.2495 32.268 58.2247 28.9068 58.2247C25.8907 58.2247 22.7845 56.9205 20.3858 54.6467C17.9629 52.3469 16.5685 49.3516 16.5685 46.4327C16.5685 44.8475 16.8841 43.3091 17.5102 41.8591C18.1135 40.4594 18.9836 39.1905 20.0719 38.1233C21.1646 37.05 22.4543 36.1978 23.8702 35.6137C25.3392 34.9962 26.9071 34.6875 28.5183 34.6875C30.1296 34.6875 32.0738 34.9546 33.5445 35.5686C36.3947 36.748 38.6751 38.9886 39.9045 41.8175C40.5306 43.264 40.8463 44.8024 40.8463 46.3876H35.3292C35.3292 42.9015 32.0651 40.1074 28.5166 40.1074C24.9663 40.1074 22.0803 42.9431 22.0803 46.431C22.0821 49.5251 25.5924 52.803 28.9051 52.803V52.803ZM68.598 64.5482C68.598 66.1369 68.2754 67.6788 67.6424 69.1287C67.0274 70.5329 66.1436 71.8032 65.0408 72.868C63.9264 73.9466 62.6159 74.802 61.1801 75.3881C59.685 76.0003 58.0946 76.3125 56.4574 76.3125C54.8201 76.3125 53.2297 76.0003 51.7295 75.3881C50.2951 74.8011 48.9859 73.9458 47.8722 72.868C46.7676 71.8048 45.8836 70.5341 45.2707 69.1287C44.6383 67.6845 44.3129 66.1248 44.315 64.5482V46.4518C44.315 44.8665 44.6376 43.3247 45.2707 41.8713C45.8831 40.4657 46.7672 39.1949 47.8722 38.132C48.985 37.0531 50.2944 36.1976 51.7295 35.6119C53.228 34.9997 54.8184 34.6875 56.4574 34.6875C58.0964 34.6875 59.685 34.9997 61.1818 35.6119C62.63 36.2051 63.9291 37.0515 65.0425 38.132C66.156 39.2125 67.0301 40.4699 67.6441 41.8713C68.2771 43.3247 68.5997 44.8665 68.5997 46.4518V64.5482H68.598ZM84.4086 52.7996C85.992 52.7996 87.5478 53.1274 89.0307 53.7691C91.8526 54.9961 94.1158 57.2309 95.3785 60.0371C96.0202 61.4975 96.348 63.022 96.348 64.569C96.348 66.1543 96.0306 67.6927 95.4062 69.1426C94.8048 70.5415 93.9358 71.8094 92.848 72.875C91.7552 73.949 90.4656 74.8023 89.0498 75.3881C87.5721 76.0003 86.0059 76.3125 84.393 76.3125C82.78 76.3125 80.841 75.9604 79.365 75.3465C77.9511 74.7588 76.663 73.9058 75.5702 72.8333C74.4807 71.7685 73.6104 70.5005 73.0085 69.101C72.3851 67.6569 72.0645 66.1003 72.0667 64.5274H77.5855C77.5855 68.017 80.8462 70.8926 84.3947 70.8926C87.945 70.8926 90.8327 68.0534 90.8327 64.569C90.8327 61.2495 87.7715 58.2247 84.4103 58.2247C81.3925 58.2247 78.2862 56.9205 75.8858 54.6467C73.4595 52.3469 72.0685 49.3516 72.0685 46.4327C72.0688 44.8845 72.3789 43.3521 72.9806 41.9256C73.5823 40.4991 74.4634 39.2075 75.5719 38.1268C76.664 37.0525 77.9523 36.1982 79.3667 35.6102C80.841 34.9962 82.4088 34.6875 84.0201 34.6875C85.6313 34.6875 87.5721 34.9546 89.048 35.5686C90.4702 36.1617 91.7502 37.0081 92.8463 38.0851C93.9344 39.1504 94.8035 40.4184 95.4045 41.8175C96.0289 43.264 96.3463 44.8024 96.3463 46.3876H90.8292C90.8292 42.9015 87.5669 40.1074 84.0183 40.1074C80.4681 40.1074 77.5821 42.9431 77.5821 46.431C77.5838 49.5251 81.089 52.7996 84.4086 52.7996Z" fill="black"/>
</svg>
