<svg width="61" height="65" viewBox="0 0 61 65" fill="none" xmlns="http://www.w3.org/2000/svg">
<path d="M22.875 35.2084C28.4899 35.2084 33.0417 30.3581 33.0417 24.375C33.0417 18.3919 28.4899 13.5417 22.875 13.5417C17.2601 13.5417 12.7083 18.3919 12.7083 24.375C12.7083 30.3581 17.2601 35.2084 22.875 35.2084Z" fill="#535353"/>
<path d="M22.875 40.625C16.0887 40.625 2.54166 44.2542 2.54166 51.4584V56.875H43.2083V51.4584C43.2083 44.2542 29.6612 40.625 22.875 40.625ZM42.5983 14.5167L38.3283 19.0938C40.4633 22.2896 40.4633 26.4334 38.3283 29.6292L42.5983 34.2063C47.7325 28.7354 47.7325 20.475 42.5983 14.5167ZM51.0112 5.41669L46.8683 9.83127C53.9087 18.0104 53.9087 30.3063 46.8683 38.9188L51.0112 43.3334C60.9237 32.7979 60.9492 16.3854 51.0112 5.41669Z" fill="#535353"/>
</svg>
