<svg width="58" height="58" viewBox="0 0 58 58" fill="none" xmlns="http://www.w3.org/2000/svg">
<path d="M51.3024 47.4975C54.2794 43.9187 56.3499 39.6761 57.3388 35.1286C58.3277 30.5811 58.2058 25.8626 56.9836 21.3721C55.7614 16.8817 53.4747 12.7514 50.3171 9.33066C47.1594 5.90995 43.2237 3.29946 38.8427 1.72002C34.4618 0.140576 29.7646 -0.361351 25.1485 0.256697C20.5323 0.874746 16.1331 2.59459 12.3229 5.27073C8.51264 7.94688 5.40355 11.5006 3.2586 15.6313C1.11364 19.7619 -0.00406828 24.348 1.11266e-05 29.0016C0.00157653 35.7665 2.38747 42.3149 6.73904 47.4975L6.69758 47.5327C6.84268 47.7067 7.00852 47.8558 7.15777 48.0277C7.34433 48.2411 7.5454 48.442 7.73818 48.6491C8.31859 49.2787 8.91559 49.8835 9.54161 50.451C9.73232 50.625 9.92924 50.7866 10.122 50.9523C10.7854 51.5239 11.4673 52.0666 12.1742 52.5719C12.2654 52.6341 12.3483 52.7149 12.4395 52.7791V52.7542C17.2945 56.1679 23.0862 58 29.0228 58C34.9594 58 40.7511 56.1679 45.6061 52.7542V52.7791C45.6973 52.7149 45.7781 52.6341 45.8714 52.5719C46.5762 52.0645 47.2603 51.5239 47.9236 50.9523C48.1164 50.7866 48.3133 50.6229 48.504 50.451C49.13 49.8814 49.727 49.2787 50.3074 48.6491C50.5002 48.442 50.6992 48.2411 50.8879 48.0277C51.035 47.8558 51.2029 47.7067 51.348 47.5306L51.3024 47.4975ZM29.0207 12.4319C30.8657 12.4319 32.6692 12.9786 34.2032 14.0027C35.7371 15.0268 36.9328 16.4825 37.6388 18.1856C38.3448 19.8887 38.5295 21.7627 38.1696 23.5707C37.8097 25.3787 36.9213 27.0394 35.6167 28.3429C34.3121 29.6464 32.65 30.5341 30.8406 30.8937C29.0311 31.2533 27.1555 31.0688 25.451 30.3633C23.7465 29.6579 22.2897 28.4633 21.2647 26.9305C20.2397 25.3978 19.6926 23.5958 19.6926 21.7524C19.6926 19.2804 20.6754 16.9097 22.4248 15.1618C24.1741 13.4139 26.5468 12.4319 29.0207 12.4319ZM12.452 47.4975C12.4879 44.7779 13.594 42.1818 15.531 40.2709C17.4679 38.36 20.08 37.2878 22.802 37.2864H35.2395C37.9615 37.2878 40.5735 38.36 42.5105 40.2709C44.4474 42.1818 45.5535 44.7779 45.5895 47.4975C41.0433 51.5909 35.1405 53.8563 29.0207 53.8563C22.901 53.8563 16.9982 51.5909 12.452 47.4975Z" fill="black"/>
</svg>
