<svg width="57" height="52" viewBox="0 0 57 52" fill="none" xmlns="http://www.w3.org/2000/svg">
<path d="M56.4322 5.16541C56.7958 5.50151 56.9999 5.95673 56.9999 6.4313C56.9999 6.90588 56.7958 7.3611 56.4322 7.6972L52.3735 11.4411L44.5908 4.26888L48.6495 0.524982C49.0143 0.188836 49.5091 0 50.0251 0C50.541 0 51.0358 0.188836 51.4007 0.524982L56.4322 5.16182V5.16541ZM49.6223 13.9729L41.8396 6.80067L15.3278 31.2364C15.1136 31.4337 14.9524 31.6744 14.8569 31.9393L11.7244 40.5962C11.6676 40.754 11.6595 40.9233 11.7011 41.0851C11.7427 41.2469 11.8323 41.3948 11.9599 41.5124C12.0874 41.63 12.248 41.7125 12.4236 41.7508C12.5991 41.7892 12.7828 41.7817 12.9541 41.7294L22.3478 38.8426C22.6349 38.7556 22.896 38.6083 23.1105 38.4122L49.6223 13.9765V13.9729Z" fill="black"/>
<path fill-rule="evenodd" clip-rule="evenodd" d="M0 46.6209C0 48.0475 0.614972 49.4157 1.70963 50.4245C2.80428 51.4333 4.28896 52 5.83703 52H48.6419C50.19 52 51.6747 51.4333 52.7693 50.4245C53.864 49.4157 54.479 48.0475 54.479 46.6209V25.1042C54.479 24.6287 54.274 24.1726 53.9091 23.8363C53.5442 23.5001 53.0493 23.3111 52.5333 23.3111C52.0173 23.3111 51.5224 23.5001 51.1575 23.8363C50.7926 24.1726 50.5876 24.6287 50.5876 25.1042V46.6209C50.5876 47.0964 50.3826 47.5525 50.0177 47.8887C49.6529 48.225 49.158 48.4139 48.6419 48.4139H5.83703C5.32101 48.4139 4.82612 48.225 4.46123 47.8887C4.09635 47.5525 3.89136 47.0964 3.89136 46.6209V7.17366C3.89136 6.69811 4.09635 6.24204 4.46123 5.90578C4.82612 5.56951 5.32101 5.3806 5.83703 5.3806H31.1308C31.6469 5.3806 32.1418 5.19169 32.5066 4.85543C32.8715 4.51917 33.0765 4.0631 33.0765 3.58755C33.0765 3.112 32.8715 2.65593 32.5066 2.31967C32.1418 1.98341 31.6469 1.79449 31.1308 1.79449H5.83703C4.28896 1.79449 2.80428 2.36123 1.70963 3.37002C0.614972 4.3788 0 5.74702 0 7.17366V46.6209Z" fill="black"/>
</svg>
